<mxfile host="app.diagrams.net" modified="2022-01-25T15:18:55.638Z" agent="5.0 (Windows NT 10.0; Win64; x64) AppleWebKit/537.36 (KHTML, like Gecko) Chrome/97.0.4692.71 Safari/537.36" etag="BGHxpxqSGNiijToiMyxJ" version="15.8.6" type="github">
  <diagram id="dv6eeh_ehJz98NVpEEs9" name="Page-1">
    <mxGraphModel dx="2017" dy="241" grid="1" gridSize="10" guides="1" tooltips="1" connect="1" arrows="1" fold="1" page="1" pageScale="1" pageWidth="827" pageHeight="1169" math="0" shadow="0">
      <root>
        <mxCell id="0" />
        <mxCell id="1" parent="0" />
        <mxCell id="rbQ4l1BuXHaxNWuZLNKp-1" value="" style="group;fillColor=none;strokeColor=#FF0000;fontColor=#ffffff;" vertex="1" connectable="0" parent="1">
          <mxGeometry x="1020" y="1420" width="230" height="120" as="geometry" />
        </mxCell>
        <mxCell id="rbQ4l1BuXHaxNWuZLNKp-2" value="" style="shape=process;whiteSpace=wrap;html=1;backgroundOutline=1;strokeWidth=3;strokeColor=#FF0000;fillColor=none;fontColor=#ffffff;" vertex="1" parent="rbQ4l1BuXHaxNWuZLNKp-1">
          <mxGeometry x="1" width="230" height="120" as="geometry" />
        </mxCell>
        <mxCell id="rbQ4l1BuXHaxNWuZLNKp-3" value="" style="outlineConnect=0;dashed=0;verticalLabelPosition=bottom;verticalAlign=top;align=center;html=1;shape=mxgraph.aws3.android;fillColor=#e51400;strokeColor=#B20000;strokeWidth=3;fontColor=#ffffff;" vertex="1" parent="rbQ4l1BuXHaxNWuZLNKp-1">
          <mxGeometry x="78.25" y="18" width="73.5" height="84" as="geometry" />
        </mxCell>
        <mxCell id="rbQ4l1BuXHaxNWuZLNKp-4" value="Nuevo Micro (batch)" style="text;html=1;strokeColor=none;fillColor=none;align=center;verticalAlign=middle;whiteSpace=wrap;rounded=0;fontColor=#0000CC;rotation=0;" vertex="1" parent="rbQ4l1BuXHaxNWuZLNKp-1">
          <mxGeometry x="78.25" y="100" width="122" height="20" as="geometry" />
        </mxCell>
        <mxCell id="rbQ4l1BuXHaxNWuZLNKp-6" value="Lago" style="shape=cylinder3;whiteSpace=wrap;html=1;boundedLbl=1;backgroundOutline=1;size=15;" vertex="1" parent="1">
          <mxGeometry x="919.5" y="1280" width="60" height="80" as="geometry" />
        </mxCell>
        <mxCell id="rbQ4l1BuXHaxNWuZLNKp-7" value="&lt;span style=&quot;font-size: 18px&quot;&gt;Kafka / Event&lt;/span&gt;" style="rounded=0;whiteSpace=wrap;html=1;" vertex="1" parent="1">
          <mxGeometry x="910" y="1600" width="513" height="40" as="geometry" />
        </mxCell>
        <mxCell id="rbQ4l1BuXHaxNWuZLNKp-9" value="Core" style="shape=parallelogram;perimeter=parallelogramPerimeter;whiteSpace=wrap;html=1;fixedSize=1;fontSize=18;" vertex="1" parent="1">
          <mxGeometry x="979.5" y="1720" width="354" height="90" as="geometry" />
        </mxCell>
        <mxCell id="rbQ4l1BuXHaxNWuZLNKp-10" value="" style="shape=flexArrow;endArrow=classic;html=1;rounded=0;fontSize=18;entryX=0.5;entryY=0;entryDx=0;entryDy=0;exitX=0.478;exitY=1.025;exitDx=0;exitDy=0;exitPerimeter=0;" edge="1" parent="1" source="rbQ4l1BuXHaxNWuZLNKp-7" target="rbQ4l1BuXHaxNWuZLNKp-9">
          <mxGeometry width="50" height="50" relative="1" as="geometry">
            <mxPoint x="1160" y="1709" as="sourcePoint" />
            <mxPoint x="1210" y="1659" as="targetPoint" />
          </mxGeometry>
        </mxCell>
        <mxCell id="rbQ4l1BuXHaxNWuZLNKp-11" value="&lt;font style=&quot;font-size: 18px&quot;&gt;Kafka / Alert&lt;/font&gt;" style="rounded=0;whiteSpace=wrap;html=1;" vertex="1" parent="1">
          <mxGeometry x="900" y="1880" width="513" height="40" as="geometry" />
        </mxCell>
        <mxCell id="rbQ4l1BuXHaxNWuZLNKp-12" value="" style="shape=flexArrow;endArrow=classic;html=1;rounded=0;fontSize=18;exitX=0.5;exitY=1;exitDx=0;exitDy=0;entryX=0.5;entryY=0;entryDx=0;entryDy=0;" edge="1" parent="1" source="rbQ4l1BuXHaxNWuZLNKp-9" target="rbQ4l1BuXHaxNWuZLNKp-11">
          <mxGeometry width="50" height="50" relative="1" as="geometry">
            <mxPoint x="1131.5" y="1870" as="sourcePoint" />
            <mxPoint x="1181.5" y="1820" as="targetPoint" />
          </mxGeometry>
        </mxCell>
        <mxCell id="rbQ4l1BuXHaxNWuZLNKp-13" value="" style="shape=flexArrow;endArrow=classic;html=1;rounded=0;fontSize=18;entryX=0.5;entryY=0;entryDx=0;entryDy=0;exitX=0.564;exitY=0.95;exitDx=0;exitDy=0;exitPerimeter=0;" edge="1" parent="1" source="rbQ4l1BuXHaxNWuZLNKp-4" target="rbQ4l1BuXHaxNWuZLNKp-7">
          <mxGeometry width="50" height="50" relative="1" as="geometry">
            <mxPoint x="1134.354" y="1540" as="sourcePoint" />
            <mxPoint x="1135.64" y="1619" as="targetPoint" />
          </mxGeometry>
        </mxCell>
      </root>
    </mxGraphModel>
  </diagram>
</mxfile>
